<svg xmlns="http://www.w3.org/2000/svg" width="512" height="512" viewBox="0 0 24 24" fill="#000000"><g fill="none" stroke="#9DB2BF" stroke-linecap="round" stroke-linejoin="round" stroke-width="1.5" color="currentColor"><path d="M4 7a2 2 0 1 0 0-4a2 2 0 0 0 0 4m16 2a2 2 0 1 0 0-4a2 2 0 0 0 0 4M4.967 17c-3.524-5.5 4.023-6-.008-10m1.42-2c1.104 0 3.62 1 3.62 3M5 17c5.217 1.452 8.328 1.209 14 0M4 20c5.963 1.452 9.518 1.209 16 0"/><path d="M18.03 6.044c-2.366.435-7.82 3.74-6.98 11.194m7.202-9.15c-1.215.573-3.126 1.8-.653 4.824c.78.955 1.687 2.967 1.352 3.957"/></g></svg>